<?xml version="1.0" encoding="utf-8"?>
<!-- Generator: Adobe Illustrator 23.1.1, SVG Export Plug-In . SVG Version: 6.00 Build 0)  -->
<svg version="1.1" id="Calque_1" xmlns="http://www.w3.org/2000/svg" xmlns:xlink="http://www.w3.org/1999/xlink" x="0px" y="0px"
	 viewBox="0 0 100 700" style="enable-background:new 0 0 100 700;" xml:space="preserve">
<style type="text/css">
	.st0{fill:#FFFFFF;stroke:#000000;stroke-width:5;stroke-linecap:round;stroke-linejoin:round;stroke-miterlimit:10;}
	.st1{fill:none;stroke:#000000;stroke-width:5;stroke-linecap:round;stroke-linejoin:round;stroke-miterlimit:10;}
	.st2{fill:none;}
</style>
<rect x="32.5" y="321.5" class="st0" width="35" height="19"/>
<rect x="21.5" y="336.5" class="st0" width="57" height="27"/>
<rect x="32.5" y="359.5" class="st0" width="35" height="19"/>
<rect x="14.5" y="228.5" class="st0" width="57" height="40"/>
<polygon class="st0" points="91.5,268.3 71.7,248.5 91.5,228.7 "/>
<rect x="19.7" y="136.8" transform="matrix(0.7071 -0.7071 0.7071 0.7071 -88.2266 79.5875)" class="st0" width="64.6" height="19"/>
<polyline class="st1" points="35.8,175.8 20.7,177.5 22.4,162.4 "/>
<line class="st1" x1="60.9" y1="124" x2="74.3" y2="137.4"/>
<polyline class="st0" points="21.5,38.2 21.5,19.2 78.5,19.2 78.5,38.2 "/>
<line class="st0" x1="50" y1="19.2" x2="50" y2="74.5"/>
<line class="st0" x1="67.5" y1="74.5" x2="32.5" y2="74.5"/>
<rect y="500" class="st2" width="100" height="100"/>
<rect y="600" class="st2" width="100" height="100"/>
<rect y="400" class="st2" width="100" height="100"/>
<g>
	<line class="st0" x1="27.5" y1="527.5" x2="72.5" y2="572.5"/>
	<line class="st0" x1="72.5" y1="527.5" x2="27.5" y2="572.5"/>
</g>
<g>
	<polyline class="st1" points="76.2,432.1 40.3,467.9 23.8,451.5 	"/>
</g>
<g>
	<g>
		<path class="st0" d="M83.8,650C76.4,636.4,64,627.5,50,627.5s-26.4,8.9-33.8,22.5"/>
		<path class="st0" d="M16.2,650c7.4,13.6,19.8,22.5,33.8,22.5s26.4-8.9,33.8-22.5"/>
	</g>
	<circle class="st0" cx="50" cy="650" r="8.9"/>
</g>
</svg>
